<svg xmlns="http://www.w3.org/2000/svg" width="880" height="650" viewBox="0 0 880 650"><rect x="0" y="0" width="880" height="650" rx="0" fill="#e4eff6"/><text x="48" y="65" font-family="Arial,sans-serif" font-size="16" fill="#687377" font-weight="400">05</text><rect x="208" y="455" width="448" height="86" rx="18" fill="white"/><rect x="227" y="474" width="43" height="43" rx="12" fill="#477e99"/><text x="287" y="485" font-family="Arial,sans-serif" font-size="13" fill="#202526" font-weight="700">DRIFT</text><text x="287" y="512" font-family="Arial,sans-serif" font-size="17" fill="#202526" font-weight="400">Your evening wind-down is ready.</text><rect x="300" y="38" width="280" height="550" rx="36" fill="#172124"/><rect x="306" y="44" width="268" height="538" rx="30" fill="#fffefa"/><text x="326" y="72" font-family="Arial,sans-serif" font-size="12" fill="#202526" font-weight="400">9:41</text><rect x="402" y="55" width="75" height="15" rx="8" fill="#172124"/><text x="328" y="118" font-family="Arial,sans-serif" font-size="16" fill="#344749" font-weight="700">DRIFT</text><text x="328" y="165" font-family="Arial,sans-serif" font-size="27" fill="#202526" font-weight="700">Take a breath</text><circle cx="440" cy="291" r="90" fill="#c5e0e5"/><circle cx="440" cy="291" r="65" fill="#86b3c3"/><circle cx="440" cy="291" r="37" fill="#477e99"/><text x="402" y="297" font-family="Arial,sans-serif" font-size="20" fill="white" font-weight="400">Breathe</text><text x="358" y="433" font-family="Arial,sans-serif" font-size="17" fill="#202526" font-weight="400">A little space for you.</text><rect x="402" y="562" width="75" height="4" rx="2" fill="#293737"/><rect x="208" y="455" width="448" height="86" rx="18" fill="white"/><text x="235" y="485" font-family="Arial,sans-serif" font-size="13" fill="#202526" font-weight="700">DRIFT</text><text x="235" y="512" font-family="Arial,sans-serif" font-size="17" fill="#202526" font-weight="400">Your evening wind-down is ready.</text></svg>